<svg width="14" height="20" viewBox="0 0 14 20" fill="none" xmlns="http://www.w3.org/2000/svg">
<path d="M11.8929 11.8594H2.60714C1.58147 11.8594 0.75 12.6908 0.75 13.7165V17.4308C0.75 18.4565 1.58147 19.2879 2.60714 19.2879H11.8929C12.9185 19.2879 13.75 18.4565 13.75 17.4308V13.7165C13.75 12.6908 12.9185 11.8594 11.8929 11.8594Z" fill="#F08A61"/>
<path d="M7.25084 15.5709C7.00456 15.5709 6.76838 15.473 6.59424 15.2989C6.4201 15.1248 6.32227 14.8886 6.32227 14.6423V7.21373C6.32227 6.96746 6.4201 6.73127 6.59424 6.55713C6.76838 6.38299 7.00456 6.28516 7.25084 6.28516C7.49711 6.28516 7.73329 6.38299 7.90744 6.55713C8.08158 6.73127 8.17941 6.96746 8.17941 7.21373V14.6423C8.17941 14.8886 8.08158 15.1248 7.90744 15.2989C7.73329 15.473 7.49711 15.5709 7.25084 15.5709Z" fill="#F08A61"/>
<path d="M7.24993 8.14341C9.30127 8.14341 10.9642 6.48047 10.9642 4.42913C10.9642 2.37779 9.30127 0.714844 7.24993 0.714844C5.19859 0.714844 3.53564 2.37779 3.53564 4.42913C3.53564 6.48047 5.19859 8.14341 7.24993 8.14341Z" fill="#F08A61"/>
</svg>
